<svg viewBox="0 0 522.866 491.367" fill="none" stroke-linecap="square" stroke-miterlimit="10" xmlns="http://www.w3.org/2000/svg"><clipPath id="a"><path d="M0 0h522.866v491.367H0V0z"/></clipPath><g clip-path="url(#a)"><path fill="#fff" d="M0 0h522.866v491.367H0z" fill-rule="evenodd"/><path fill="none" d="M13.837 245.184c0-127.53 110.068-230.914 245.843-230.914 65.201 0 127.732 24.329 173.837 67.633 46.104 43.305 72.005 102.039 72.005 163.28 0 127.53-110.067 230.914-245.842 230.914-135.775 0-245.843-103.383-245.843-230.913z"/><path stroke="#000" stroke-width="2" stroke-linejoin="round" stroke-linecap="butt" d="M13.837 245.184c0-127.53 110.068-230.914 245.843-230.914 65.201 0 127.732 24.329 173.837 67.633 46.104 43.305 72.005 102.039 72.005 163.28 0 127.53-110.067 230.914-245.842 230.914-135.775 0-245.843-103.383-245.843-230.913z"/><path fill="none" d="M82.593 269.462c0-105.83 91.235-191.622 203.78-191.622 54.045 0 105.878 20.189 144.094 56.125 38.216 35.936 59.685 84.676 59.685 135.497 0 105.83-91.235 191.622-203.78 191.622-112.544 0-203.779-85.792-203.779-191.622z"/><path stroke="#000" stroke-width="2" stroke-linejoin="round" stroke-linecap="butt" d="M82.593 269.462c0-105.83 91.235-191.622 203.78-191.622 54.045 0 105.878 20.189 144.094 56.125 38.216 35.936 59.685 84.676 59.685 135.497 0 105.83-91.235 191.622-203.78 191.622-112.544 0-203.779-85.792-203.779-191.622z"/><path fill="none" d="M151.352 286.709c0-88.131 70.859-159.575 158.267-159.575 41.976 0 82.232 16.812 111.913 46.738 29.68 29.926 46.355 70.515 46.355 112.837 0 88.13-70.859 159.574-158.268 159.574-87.408 0-158.267-71.444-158.267-159.574z"/><path stroke="#000" stroke-width="2" stroke-linejoin="round" stroke-linecap="butt" d="M151.352 286.709c0-88.131 70.859-159.575 158.267-159.575 41.976 0 82.232 16.812 111.913 46.738 29.68 29.926 46.355 70.515 46.355 112.837 0 88.13-70.859 159.574-158.268 159.574-87.408 0-158.267-71.444-158.267-159.574z"/><path fill="none" d="M218.688 307.092c0-65.396 51.244-118.41 114.456-118.41 30.356 0 59.469 12.476 80.933 34.682 21.465 22.206 33.524 52.324 33.524 83.728 0 65.396-51.244 118.41-114.457 118.41-63.212 0-114.456-53.014-114.456-118.41z"/><path stroke="#000" stroke-width="2" stroke-linejoin="round" stroke-linecap="butt" d="M218.688 307.092c0-65.396 51.244-118.41 114.456-118.41 30.356 0 59.469 12.476 80.933 34.682 21.465 22.206 33.524 52.324 33.524 83.728 0 65.396-51.244 118.41-114.457 118.41-63.212 0-114.456-53.014-114.456-118.41z"/><path fill="none" d="M283.963 331.136c0-39.225 32.75-71.023 73.15-71.023 19.4 0 38.006 7.483 51.724 20.802 13.719 13.32 21.425 31.385 21.425 50.221 0 39.226-32.75 71.024-73.15 71.024-40.399 0-73.149-31.798-73.149-71.024z"/><path stroke="#000" stroke-width="2" stroke-linejoin="round" stroke-linecap="butt" d="M283.963 331.136c0-39.225 32.75-71.023 73.15-71.023 19.4 0 38.006 7.483 51.724 20.802 13.719 13.32 21.425 31.385 21.425 50.221 0 39.226-32.75 71.024-73.15 71.024-40.399 0-73.149-31.798-73.149-71.024z"/><path fill="none" d="M298.436 271.724h90.173v57.764h-90.173z"/><path fill="#000" d="m314.624 305.444 2.953-.25q.328 2.157 1.516 3.25 1.203 1.079 2.89 1.079 2.031 0 3.438-1.532 1.406-1.531 1.406-4.062 0-2.406-1.36-3.797-1.343-1.39-3.53-1.39-1.36 0-2.454.624-1.094.61-1.719 1.594l-2.64-.344 2.219-11.765h11.39v2.687h-9.14l-1.235 6.156q2.063-1.437 4.328-1.437 3 0 5.063 2.078 2.062 2.078 2.062 5.344 0 3.11-1.812 5.375-2.203 2.781-6.016 2.781-3.125 0-5.11-1.75-1.968-1.75-2.25-4.64zm18.906 6v-22.906h3.11l12.03 17.985v-17.985h2.907v22.906h-3.11l-12.03-18v18h-2.907zm23.297 0v-22.906h15.453v2.703h-12.422v7.094h10.75v2.703h-10.75v10.406h-3.031z"/><path fill="none" d="M181.68 160.165h116.756v57.764H181.68z"/><path fill="#000" d="M198.847 199.885V176.98h8.594q2.625 0 4.203.703 1.593.688 2.484 2.14.906 1.438.906 3.016 0 1.47-.797 2.766-.796 1.297-2.406 2.094 2.078.61 3.188 2.078 1.125 1.469 1.125 3.469 0 1.61-.688 3-.672 1.375-1.672 2.125-1 .75-2.515 1.14-1.5.375-3.688.375h-8.734zm3.031-13.28h4.953q2.016 0 2.89-.267 1.157-.343 1.735-1.14.594-.797.594-2 0-1.14-.547-2-.547-.875-1.562-1.188-1.016-.328-3.485-.328h-4.578v6.922zm0 10.577h5.703q1.469 0 2.063-.11 1.047-.187 1.75-.624.703-.438 1.156-1.266.453-.844.453-1.937 0-1.282-.656-2.219-.656-.953-1.828-1.328-1.157-.39-3.344-.39h-5.297v7.874zm34.781-5.328 3.032.766q-.954 3.734-3.438 5.703-2.469 1.953-6.047 1.953-3.703 0-6.031-1.5-2.313-1.516-3.531-4.375-1.203-2.86-1.203-6.14 0-3.579 1.359-6.235 1.375-2.672 3.89-4.047 2.532-1.39 5.563-1.39 3.438 0 5.781 1.75 2.344 1.75 3.266 4.921l-2.984.703q-.797-2.5-2.313-3.64-1.516-1.14-3.812-1.14-2.641 0-4.422 1.265-1.766 1.265-2.485 3.406-.718 2.125-.718 4.39 0 2.923.843 5.11.86 2.172 2.657 3.25 1.796 1.078 3.89 1.078 2.547 0 4.313-1.469 1.765-1.468 2.39-4.359zm6.735 8.031V176.98h3.109l12.031 17.984V176.98h2.907v22.906h-3.11l-12.031-18v18h-2.906zm23.297 0V176.98h15.453v2.703h-12.422v7.094h10.75v2.703h-10.75v10.406h-3.031z"/><path fill="none" d="M248.932 225.711h90.173v57.764h-90.173z"/><path fill="#000" d="M274.136 265.431v-5.484h-9.938v-2.578l10.453-14.844h2.297v14.844h3.094v2.578h-3.094v5.484h-2.812zm0-8.062V247.04l-7.172 10.328h7.172zm9.89 8.062v-22.906h3.11l12.03 17.984v-17.984h2.907v22.906h-3.11l-12.03-18v18h-2.907zm23.297 0v-22.906h15.453v2.703h-12.422v7.094h10.75v2.703h-10.75v10.406h-3.03z"/><path fill="#d9d9d9" d="M328.507 354.168c0-20.065 18.712-36.33 41.795-36.33 23.083 0 41.795 16.265 41.795 36.33 0 20.065-18.712 36.33-41.795 36.33-23.083 0-41.795-16.265-41.795-36.33z" fill-rule="evenodd"/><path stroke="#000" stroke-width="2" stroke-linejoin="round" stroke-linecap="butt" d="M328.507 354.168c0-20.065 18.712-36.33 41.795-36.33 23.083 0 41.795 16.265 41.795 36.33 0 20.065-18.712 36.33-41.795 36.33-23.083 0-41.795-16.265-41.795-36.33z"/><path fill="none" d="M128.514 127.134h90.174v57.764h-90.174z"/><path fill="#000" d="m144.718 160.807 2.813-.375q.484 2.39 1.64 3.453 1.172 1.047 2.844 1.047 1.985 0 3.344-1.375 1.375-1.375 1.375-3.406 0-1.938-1.266-3.188-1.265-1.265-3.218-1.265-.797 0-1.985.312l.313-2.469q.28.032.453.032 1.797 0 3.234-.938 1.438-.937 1.438-2.89 0-1.547-1.047-2.563-1.047-1.016-2.703-1.016-1.641 0-2.735 1.032-1.093 1.03-1.406 3.093l-2.813-.5q.516-2.828 2.344-4.375 1.828-1.562 4.547-1.562 1.875 0 3.453.812 1.578.797 2.407 2.188.843 1.39.843 2.953 0 1.484-.797 2.703-.796 1.219-2.359 1.938 2.031.468 3.156 1.953 1.125 1.468 1.125 3.687 0 3-2.187 5.094-2.188 2.078-5.531 2.078-3.016 0-5.016-1.797-1.984-1.797-2.266-4.656zm18.89 6.047v-22.906h3.11l12.032 17.984v-17.984h2.906v22.906h-3.11l-12.03-18v18h-2.907zm23.298 0v-22.906h15.453v2.703h-12.422v7.093h10.75v2.704h-10.75v10.406h-3.031z"/><path fill="none" d="M82.593 73.583h90.173v57.763H82.593z"/><path fill="#000" d="M113.563 110.6v2.703H98.422q-.031-1.016.328-1.953.578-1.547 1.844-3.047 1.281-1.5 3.687-3.47 3.735-3.062 5.047-4.843 1.313-1.797 1.313-3.39 0-1.672-1.203-2.813-1.188-1.156-3.11-1.156-2.031 0-3.25 1.219-1.219 1.218-1.234 3.375l-2.89-.297q.296-3.235 2.234-4.922 1.937-1.703 5.203-1.703 3.297 0 5.218 1.828 1.922 1.828 1.922 4.531 0 1.375-.562 2.703-.563 1.328-1.875 2.797-1.297 1.469-4.328 4.031-2.532 2.125-3.25 2.89-.719.75-1.188 1.517h11.235zm4.125 2.703V90.396h3.109l12.031 17.985V90.396h2.906v22.907h-3.109l-12.031-18v18h-2.906zm23.296 0V90.396h15.454V93.1h-12.422v7.093h10.75v2.703h-10.75v10.407h-3.032z"/><path fill="none" d="M18.472 29.304h90.174v57.764H18.472z"/><path fill="#000" d="M45.254 69.024h-2.812V51.103q-1.016.968-2.672 1.937-1.64.969-2.953 1.453v-2.719q2.36-1.109 4.125-2.687 1.765-1.578 2.5-3.063h1.812v23zm8.313 0V46.118h3.11l12.03 17.985V46.118h2.907v22.906h-3.11l-12.03-18v18h-2.907zm23.297 0V46.118h15.453v2.703H79.895v7.094h10.75v2.703h-10.75v10.406h-3.031z"/></g></svg>